<svg width="16" height="16" viewBox="0 0 16 16" fill="none" xmlns="http://www.w3.org/2000/svg">
<path fill-rule="evenodd" clip-rule="evenodd" d="M2.2998 1.33332C2.29856 1.33333 2.29733 1.33333 2.29609 1.33333C2.04075 1.33333 1.79587 1.43477 1.61532 1.61532C1.43477 1.79587 1.33333 2.04075 1.33333 2.29609V13.702C1.33333 13.9574 1.43477 14.2022 1.61532 14.3828C1.79587 14.5633 2.04075 14.6648 2.29609 14.6648H13.702C13.9574 14.6648 14.2022 14.5633 14.3828 14.3828C14.5633 14.2022 14.6648 13.9574 14.6648 13.702C14.6648 13.6906 14.6651 13.6793 14.6656 13.6681V2.29608C14.6656 2.04756 14.5908 1.8225 14.3836 1.61531C14.2281 1.4598 14.1553 1.41143 14.0976 1.38593C14.0431 1.36185 13.9446 1.33332 13.7029 1.33332H2.2998ZM15.8385 14.5433C15.7241 14.8337 15.5506 15.1006 15.3256 15.3256C14.895 15.7562 14.311 15.9981 13.702 15.9981H2.29609C1.68713 15.9981 1.10311 15.7562 0.672508 15.3256C0.241908 14.895 0 14.311 0 13.702V2.29609C0 1.68713 0.241908 1.10311 0.672508 0.672508C0.898406 0.446611 1.16653 0.272644 1.45832 0.158292C1.57458 0.0595555 1.72515 -1.01924e-05 1.88963 -1.01924e-05H13.7029C14.0403 -1.01924e-05 14.3458 0.0378976 14.6365 0.16635C14.924 0.293381 15.1376 0.483631 15.3265 0.672501C15.808 1.15406 15.999 1.72988 15.999 2.29608V14.1094C15.999 14.2751 15.9385 14.4266 15.8385 14.5433Z" fill="#2D3440"/>
</svg>
