<svg width="24" height="24" viewBox="0 0 24 24" fill="none" xmlns="http://www.w3.org/2000/svg"><path fill-rule="evenodd" clip-rule="evenodd" d="M24 12a12 12 0 1 1-24 0 12 12 0 0 1 24 0Zm-9.5-6a41.8 41.8 0 0 0-6.4.3A3 3 0 0 0 7 7a3 3 0 0 0-.8 1L6 9.6a41.8 41.8 0 0 0 .3 6.4c.2.4.4.8.7 1 .3.4.7.6 1 .8l1.5.3a41.8 41.8 0 0 0 6.4-.3 3 3 0 0 0 1-.7c.4-.3.6-.7.8-1l.3-1.5a41.8 41.8 0 0 0-.3-6.4 3 3 0 0 0-.7-1 3 3 0 0 0-1-.8L14.4 6ZM9.9 10A3 3 0 1 1 14 14 3 3 0 0 1 10 10Zm5.8-1.6a.7.7 0 1 1-1 1 .7.7 0 0 1 1-1Zm-2.4 2.4a1.8 1.8 0 1 0-2.6 2.6 1.8 1.8 0 0 0 2.6-2.6Z" fill="#FCFCFC"/></svg>